<svg width="16" height="15" viewBox="0 0 16 15" fill="none" xmlns="http://www.w3.org/2000/svg">
<path d="M4.10449 12.7725C4.33532 12.7725 4.55702 12.8642 4.71973 13.0264C4.88225 13.1884 4.97266 13.4083 4.97266 13.6367C4.97256 13.8649 4.88208 14.0841 4.71973 14.2461C4.55702 14.4082 4.33532 14.5 4.10449 14.5C3.87379 14.4999 3.65286 14.4082 3.49023 14.2461C3.32779 14.0841 3.23642 13.865 3.23633 13.6367C3.23633 13.4082 3.32763 13.1885 3.49023 13.0264C3.65286 12.8643 3.87379 12.7726 4.10449 12.7725ZM13.6826 12.7725C13.9134 12.7725 14.1351 12.8642 14.2979 13.0264C14.4603 13.1884 14.5508 13.4083 14.5508 13.6367C14.5507 13.8649 14.4602 14.0841 14.2979 14.2461C14.1351 14.4082 13.9134 14.5 13.6826 14.5C13.4519 14.4999 13.231 14.4082 13.0684 14.2461C12.9059 14.0841 12.8145 13.865 12.8145 13.6367C12.8145 13.4082 12.9057 13.1885 13.0684 13.0264C13.231 12.8643 13.4519 12.7725 13.6826 12.7725ZM2.87793 0.5L3.14941 1.49512L3.25 1.86328H15.3057L13.1318 8.36328H4.93262L4.83789 8.74219L4.49512 10.1055L4.33984 10.7275H14.5508V11.0908H3.87012L4.56641 8.31055L4.59863 8.18359L4.56348 8.05762L2.69629 1.23145L2.5957 0.863281H0.5V0.5H2.87793ZM3.52344 2.85938L4.8291 7.63184L4.92969 8H12.8652L12.9795 7.6582L14.5762 2.88574L14.7969 2.22754H3.35059L3.52344 2.85938Z" fill="#858585" stroke="#858585"/>
</svg>
