<svg width="16" height="17" viewBox="0 0 16 17" fill="none" xmlns="http://www.w3.org/2000/svg">
<path d="M13.2662 15.493H2.74152C1.68941 15.493 0.877396 14.6992 1.0153 13.6562L1.0951 13.0479C1.24 12.2079 2.00861 11.6794 2.84302 11.4981L7.9496 10.6H8.0504L13.157 11.4981C14.0054 11.6941 14.76 12.1932 14.9049 13.0479L14.9847 13.6639C15.1226 14.7069 14.3106 15.5 13.2585 15.5L13.2662 15.493ZM11.5001 5C11.5001 5.92826 11.1313 6.8185 10.4749 7.47487C9.81852 8.13125 8.92827 8.5 8 8.5C7.07173 8.5 6.18148 8.13125 5.52509 7.47487C4.8687 6.8185 4.49995 5.92826 4.49995 5C4.49995 4.07174 4.8687 3.1815 5.52509 2.52513C6.18148 1.86875 7.07173 1.5 8 1.5C8.92827 1.5 9.81852 1.86875 10.4749 2.52513C11.1313 3.1815 11.5001 4.07174 11.5001 5Z" stroke="#858585" stroke-width="1.5" stroke-linecap="round" stroke-linejoin="round"/>
</svg>
