<svg width="16" height="18" viewBox="0 0 16 18" fill="none" xmlns="http://www.w3.org/2000/svg">
<path d="M6.46154 2.89286V3.21429H9.53846V2.89286C9.53846 2.46662 9.37637 2.05783 9.08786 1.75644C8.79934 1.45504 8.40803 1.28571 8 1.28571C7.59197 1.28571 7.20066 1.45504 6.91214 1.75644C6.62363 2.05783 6.46154 2.46662 6.46154 2.89286ZM5.23077 3.21429V2.89286C5.23077 2.12562 5.52253 1.38981 6.04186 0.847298C6.56119 0.304782 7.26555 0 8 0C8.73445 0 9.43881 0.304782 9.95814 0.847298C10.4775 1.38981 10.7692 2.12562 10.7692 2.89286V3.21429H15.3846C15.5478 3.21429 15.7044 3.28202 15.8198 3.40257C15.9352 3.52313 16 3.68665 16 3.85714C16 4.02764 15.9352 4.19115 15.8198 4.31171C15.7044 4.43227 15.5478 4.5 15.3846 4.5H14.4566L13.2923 15.1509C13.2065 15.9353 12.8472 16.6592 12.2832 17.1847C11.7191 17.7102 10.9896 18.0004 10.2338 18H5.76615C5.01038 18.0004 4.2809 17.7102 3.71683 17.1847C3.15276 16.6592 2.79355 15.9353 2.70769 15.1509L1.54338 4.5H0.615385C0.452174 4.5 0.295649 4.43227 0.180242 4.31171C0.064835 4.19115 0 4.02764 0 3.85714C0 3.68665 0.064835 3.52313 0.180242 3.40257C0.295649 3.28202 0.452174 3.21429 0.615385 3.21429H5.23077ZM3.93108 15.0043C3.98245 15.4748 4.19776 15.9091 4.53595 16.2245C4.87415 16.5398 5.31159 16.7142 5.76492 16.7143H10.2345C10.6878 16.7142 11.1252 16.5398 11.4634 16.2245C11.8016 15.9091 12.0169 15.4748 12.0683 15.0043L13.2185 4.5H2.78215L3.93108 15.0043ZM6.15385 6.75C6.31706 6.75 6.47358 6.81773 6.58899 6.93829C6.7044 7.05885 6.76923 7.22236 6.76923 7.39286V13.8214C6.76923 13.9919 6.7044 14.1554 6.58899 14.276C6.47358 14.3966 6.31706 14.4643 6.15385 14.4643C5.99064 14.4643 5.83411 14.3966 5.7187 14.276C5.6033 14.1554 5.53846 13.9919 5.53846 13.8214V7.39286C5.53846 7.22236 5.6033 7.05885 5.7187 6.93829C5.83411 6.81773 5.99064 6.75 6.15385 6.75ZM10.4615 7.39286C10.4615 7.22236 10.3967 7.05885 10.2813 6.93829C10.1659 6.81773 10.0094 6.75 9.84615 6.75C9.68294 6.75 9.52642 6.81773 9.41101 6.93829C9.2956 7.05885 9.23077 7.22236 9.23077 7.39286V13.8214C9.23077 13.9919 9.2956 14.1554 9.41101 14.276C9.52642 14.3966 9.68294 14.4643 9.84615 14.4643C10.0094 14.4643 10.1659 14.3966 10.2813 14.276C10.3967 14.1554 10.4615 13.9919 10.4615 13.8214V7.39286Z" fill="#858585"/>
</svg>
