<svg width="24" height="28" viewBox="0 0 24 28" fill="none" xmlns="http://www.w3.org/2000/svg">
<path d="M9.52804 2.18716C9.72725 1.68867 10.069 1.26177 10.5094 0.96118C10.9498 0.660588 11.4688 0.5 12 0.5C12.5311 0.5 13.0502 0.660588 13.4906 0.96118C13.931 1.26177 14.2727 1.68867 14.472 2.18716C16.4439 2.73551 18.1834 3.92441 19.423 5.57107C20.6627 7.21773 21.3338 9.23101 21.3332 11.3014V17.6417L23.7758 21.3511C23.9098 21.5544 23.9867 21.7907 23.9984 22.0348C24.0101 22.2789 23.9562 22.5216 23.8423 22.7371C23.7284 22.9526 23.5589 23.1327 23.3518 23.2583C23.1447 23.3838 22.9079 23.4502 22.6665 23.4501H16.6199C16.4594 24.5747 15.904 25.6031 15.0556 26.3468C14.2071 27.0906 13.1223 27.5 12 27.5C10.8777 27.5 9.79292 27.0906 8.94445 26.3468C8.09598 25.6031 7.54061 24.5747 7.38008 23.4501H1.33351C1.09212 23.4502 0.855256 23.3838 0.648177 23.2583C0.441098 23.1327 0.271576 22.9526 0.157698 22.7371C0.0438206 22.5216 -0.0101408 22.2789 0.00157044 22.0348C0.0132817 21.7907 0.0902264 21.5544 0.224196 21.3511L2.66682 17.6417V11.3014C2.66682 6.94946 5.57344 3.28324 9.52804 2.18716ZM10.1147 23.4501C10.2524 23.8452 10.5077 24.1872 10.8455 24.4292C11.1833 24.6711 11.5869 24.8011 12.0007 24.8011C12.4144 24.8011 12.818 24.6711 13.1558 24.4292C13.4936 24.1872 13.7489 23.8452 13.8866 23.4501H10.1147ZM12 4.55211C10.2319 4.55211 8.53625 5.26319 7.28603 6.52893C6.03581 7.79467 5.33344 9.51138 5.33344 11.3014V18.0507C5.3335 18.3173 5.25556 18.578 5.10945 18.7999L3.82547 20.7504H20.1732L18.8892 18.7999C18.7436 18.5779 18.6661 18.3172 18.6666 18.0507V11.3014C18.6666 9.51138 17.9642 7.79467 16.714 6.52893C15.4637 5.26319 13.7681 4.55211 12 4.55211Z" fill="#ACADAF"/>
</svg>
