<svg width="15" height="15" viewBox="0 0 15 15" fill="none" xmlns="http://www.w3.org/2000/svg">
<path d="M13.833 4.48926H13.832L13.8438 4.48438L13.833 4.48926ZM13.833 4.48926L8.07422 7.04883L8.07129 7.04199V13.5967H8.0918L8.0791 13.6025L13.8486 11.0371L13.8516 11.0449V4.48926H13.833ZM14.9941 3.33887V11.6689L7.5 14.9941L0.00585938 11.6689V3.33887L7.5 0.00488281L14.9941 3.33887ZM4.03613 2.68848L1.86328 3.65039L1.86621 3.65625L1.86816 3.66309L7.49805 6.16211L7.49609 6.16504L7.50195 6.16211L9.64746 5.2168L9.64551 5.21094L9.64355 5.20605L9.6416 5.20312L4.04102 2.68848L4.03809 2.69336L4.04199 2.68555L4.03613 2.68848ZM7.49805 1.14941L5.3252 2.11133L5.32715 2.11621L5.33008 2.12402L10.9229 4.63965L10.9219 4.6416L10.9277 4.63965L13.1367 3.66113L13.1338 3.65625L13.1309 3.64746L7.50195 1.14941L7.50391 1.14648L7.49805 1.14941ZM6.92578 7.0498L1.15625 4.48438L1.1543 4.48926L1.14844 4.50293V11.0312H1.13965L1.15137 11.0371L6.9209 13.6025L6.92285 13.5967L6.92578 13.5918L6.9248 13.5908L6.92871 13.584V7.05469H6.9375L6.92578 7.0498Z" fill="#858585" stroke="#858585" stroke-width="0.0117188"/>
</svg>
