<svg width="32" height="32" viewBox="0 0 32 32" fill="none" xmlns="http://www.w3.org/2000/svg">
<path d="M16 31C17.9698 31 19.9204 30.612 21.7403 29.8582C23.5601 29.1044 25.2137 27.9995 26.6066 26.6066C27.9995 25.2137 29.1044 23.5601 29.8582 21.7403C30.612 19.9204 31 17.9698 31 16C31 14.0302 30.612 12.0796 29.8582 10.2597C29.1044 8.43986 27.9995 6.78628 26.6066 5.3934C25.2137 4.00052 23.5601 2.89563 21.7403 2.14181C19.9204 1.38799 17.9698 1 16 1C12.0218 1 8.20644 2.58035 5.3934 5.3934C2.58035 8.20644 1 12.0218 1 16C1 19.9782 2.58035 23.7936 5.3934 26.6066C8.20644 29.4196 12.0218 31 16 31ZM16 31C18.9346 31.0031 21.805 30.1405 24.2517 28.52C24.0583 26.9085 23.2818 25.4234 22.0687 24.3451C20.8556 23.2668 19.2898 22.6698 17.6667 22.6667H14.3333C12.7102 22.6698 11.1444 23.2668 9.93131 24.3451C8.7182 25.4234 7.9417 26.9085 7.74833 28.52C10.195 30.1405 13.0653 31.0032 16 31ZM21 12.6667C21 13.9927 20.4732 15.2645 19.5355 16.2022C18.5979 17.1399 17.3261 17.6667 16 17.6667C14.6739 17.6667 13.4021 17.1399 12.4645 16.2022C11.5268 15.2645 11 13.9927 11 12.6667C11 11.3406 11.5268 10.0688 12.4645 9.13113C13.4021 8.19345 14.6739 7.66667 16 7.66667C17.3261 7.66667 18.5979 8.19345 19.5355 9.13113C20.4732 10.0688 21 11.3406 21 12.6667Z" stroke="#BA4A20" stroke-width="1.5" stroke-linecap="round" stroke-linejoin="round"/>
</svg>
