<svg width="32" height="32" viewBox="0 0 32 32" fill="none" xmlns="http://www.w3.org/2000/svg">
<path d="M6.32555 4.9502L9.7719 15.8619C10.3017 17.5388 10.5658 18.3772 11.075 18.9979C11.5208 19.5466 12.102 19.9701 12.7587 20.2324C13.5046 20.5291 14.3825 20.5291 16.1416 20.5291H22.7514C24.5106 20.5291 25.3885 20.5291 26.1326 20.2324C26.791 19.9701 27.3706 19.5466 27.8181 18.9979C28.3256 18.3772 28.5896 17.5388 29.1212 15.8619L29.8224 13.6398L30.2339 12.3264L30.8015 10.5261C31.004 9.88397 31.0524 9.20317 30.9428 8.53886C30.8332 7.87454 30.5686 7.24539 30.1706 6.70238C29.7725 6.15936 29.2521 5.71776 28.6515 5.41334C28.051 5.10893 27.3872 4.95026 26.7139 4.9502H6.32555ZM6.32555 4.9502L6.30669 4.88676C6.23429 4.64425 6.15423 4.40408 6.06665 4.16663C5.71952 3.28797 5.13088 2.52545 4.36872 1.96718C3.60657 1.40892 2.70201 1.07769 1.75957 1.01176C1.58296 0.998047 1.38921 0.998047 1 0.998047M16.0028 28.087C16.0028 29.6978 14.697 31.0036 13.0862 31.0036C11.4755 31.0036 10.1697 29.6978 10.1697 28.087C10.1697 26.4763 11.4755 25.1705 13.0862 25.1705C14.697 25.1705 16.0028 26.4763 16.0028 28.087ZM28.7097 28.087C28.7097 29.6978 27.4039 31.0036 25.7931 31.0036C24.1824 31.0036 22.8766 29.6978 22.8766 28.087C22.8766 26.4763 24.1824 25.1705 25.7931 25.1705C27.4039 25.1705 28.7097 26.4763 28.7097 28.087Z" stroke="#BA4A20" stroke-width="1.5" stroke-linecap="round" stroke-linejoin="round"/>
</svg>
