<svg width="16" height="17" viewBox="0 0 16 17" fill="none" xmlns="http://www.w3.org/2000/svg">
<path d="M12.6667 10.8333L15 8.5M15 8.5L12.6667 6.16667M15 8.5H4.11111M9.55556 11.6111V13.6333C9.55556 13.8785 9.50727 14.1212 9.41346 14.3477C9.31966 14.5742 9.18216 14.7799 9.00882 14.9533C8.83549 15.1266 8.62971 15.2641 8.40323 15.3579C8.17676 15.4517 7.93402 15.5 7.68889 15.5H2.86667C2.3716 15.5 1.8968 15.3033 1.54673 14.9533C1.19667 14.6032 1 14.1284 1 13.6333V3.36667C1 3.12153 1.04828 2.8788 1.14209 2.65232C1.2359 2.42585 1.3734 2.22007 1.54673 2.04673C1.8968 1.69667 2.3716 1.5 2.86667 1.5H7.68889C7.93402 1.5 8.17676 1.54828 8.40323 1.64209C8.62971 1.7359 8.83549 1.8734 9.00882 2.04673C9.18216 2.22007 9.31966 2.42585 9.41346 2.65232C9.50727 2.8788 9.55556 3.12153 9.55556 3.36667V5.38889" stroke="#858585" stroke-width="1.5" stroke-miterlimit="10" stroke-linecap="round" stroke-linejoin="round"/>
</svg>
