<svg width="21" height="22" viewBox="0 0 21 22" fill="none" xmlns="http://www.w3.org/2000/svg">
<path d="M4.37285 4.00108L6.55554 10.9118C6.89108 11.9739 7.05831 12.5049 7.38083 12.898C7.66317 13.2455 8.03129 13.5137 8.4472 13.6798C8.91957 13.8677 9.47556 13.8677 10.5897 13.8677H14.7759C15.8901 13.8677 16.446 13.8677 16.9173 13.6798C17.3343 13.5137 17.7014 13.2455 17.9848 12.898C18.3062 12.5049 18.4734 11.9739 18.8101 10.9118L19.2542 9.50449L19.5148 8.67268L19.8743 7.53247C20.0025 7.1258 20.0332 6.69463 19.9638 6.27389C19.8944 5.85316 19.7268 5.4547 19.4747 5.11079C19.2226 4.76688 18.893 4.4872 18.5126 4.2944C18.1323 4.1016 17.7119 4.00112 17.2855 4.00108H4.37285ZM4.37285 4.00108L4.3609 3.9609C4.31505 3.80731 4.26435 3.6552 4.20888 3.50482C3.98903 2.94833 3.61622 2.4654 3.13352 2.11183C2.65083 1.75827 2.07794 1.54849 1.48106 1.50673C1.36921 1.49805 1.2465 1.49805 1 1.49805M10.5017 18.6544C10.5017 19.6745 9.67475 20.5015 8.65461 20.5015C7.63446 20.5015 6.80747 19.6745 6.80747 18.6544C6.80747 17.6343 7.63446 16.8073 8.65461 16.8073C9.67475 16.8073 10.5017 17.6343 10.5017 18.6544ZM18.5495 18.6544C18.5495 19.6745 17.7225 20.5015 16.7023 20.5015C15.6822 20.5015 14.8552 19.6745 14.8552 18.6544C14.8552 17.6343 15.6822 16.8073 16.7023 16.8073C17.7225 16.8073 18.5495 17.6343 18.5495 18.6544Z" stroke="white" stroke-width="1.8" stroke-linecap="round" stroke-linejoin="round"/>
</svg>
